<?xml version="1.0" encoding="UTF-8" ?>
<!DOCTYPE svg PUBLIC "-//W3C//DTD SVG 1.1//EN" "http://www.w3.org/Graphics/SVG/1.1/DTD/svg11.dtd">
<svg width="786pt" height="786pt" viewBox="0 0 786 786" version="1.1" xmlns="http://www.w3.org/2000/svg">
<g id="#1c1c1c8f">
<path fill="#1c1c1c" opacity="0.56" d=" M 369.03 0.00 L 381.42 0.00 C 377.32 0.98 373.15 1.00 368.98 1.00 L 369.03 0.00 Z" />
</g>
<g id="#333232fd">
<path fill="#333232" opacity="1.00" d=" M 381.42 0.00 L 411.58 0.00 C 467.63 3.47 523.19 17.84 573.01 43.98 C 640.57 78.92 697.73 133.77 734.80 200.22 C 746.45 219.03 754.66 239.69 762.56 260.28 C 775.62 297.12 783.17 335.95 785.01 374.99 C 785.59 379.38 783.70 384.41 786.00 388.51 L 786.00 409.58 C 783.99 425.17 783.29 440.92 780.56 456.42 C 770.85 513.42 749.13 568.51 715.91 615.92 C 665.29 689.18 589.28 744.78 503.68 769.62 C 476.29 777.57 448.07 782.65 419.60 784.38 C 415.28 785.22 410.54 784.01 406.49 786.00 L 378.42 786.00 C 353.07 783.94 327.63 781.42 302.91 775.15 C 220.94 756.17 145.72 709.75 91.84 645.17 C 37.90 581.22 5.06 499.65 1.00 416.01 C 1.11 412.15 0.78 408.34 -0.00 404.58 L 0.00 381.42 C 0.79 377.65 1.12 373.84 0.99 370.01 C 5.59 271.99 49.85 176.50 121.23 109.23 C 187.38 45.31 276.94 5.40 368.98 1.00 C 373.15 1.00 377.32 0.98 381.42 0.00 M 383.01 20.02 L 383.00 20.98 C 321.32 22.37 259.91 39.33 206.64 70.57 C 139.28 109.42 84.57 169.89 53.00 241.00 C 33.57 285.00 21.66 332.79 20.98 381.00 L 20.02 381.01 C 19.95 389.33 19.95 397.66 20.02 406.00 L 20.98 406.00 C 22.56 448.12 30.92 490.14 46.54 529.34 C 62.24 569.81 85.73 607.14 114.39 639.65 C 122.17 647.54 128.67 656.69 137.74 663.26 C 168.36 693.06 204.86 716.85 244.04 733.90 C 285.07 751.54 329.24 762.79 373.99 764.00 L 374.02 764.97 C 380.09 765.15 386.18 765.05 392.26 764.68 C 392.62 764.66 393.34 764.61 393.70 764.59 C 400.07 765.63 406.57 764.77 413.00 764.98 L 412.99 764.01 C 447.41 762.26 481.65 755.72 514.23 744.43 C 582.10 721.07 642.71 677.36 686.64 620.69 C 732.53 561.81 760.44 488.65 764.01 414.01 C 766.49 413.01 764.11 407.35 764.97 405.00 C 764.95 397.64 765.33 390.22 764.66 382.90 C 765.50 380.80 765.45 378.06 764.48 376.01 C 765.35 374.16 766.01 370.18 764.06 369.15 C 761.41 331.80 753.92 294.66 740.39 259.68 C 724.14 217.34 699.89 178.12 669.77 144.23 C 662.41 137.56 656.96 129.05 649.01 123.00 C 583.29 60.41 493.95 22.39 403.00 20.99 L 403.00 20.02 C 396.33 19.94 389.67 19.94 383.01 20.02 Z" />
</g>
<g id="#665a34ff">
<path fill="#665a34" opacity="1.00" d=" M 383.01 20.02 C 389.67 19.94 396.33 19.94 403.00 20.02 L 403.00 20.99 C 396.32 21.02 389.66 21.07 383.00 20.98 L 383.01 20.02 Z" />
</g>
<g id="#f5c938ff">
<path fill="#f5c938" opacity="1.00" d=" M 206.64 70.57 C 259.91 39.33 321.32 22.37 383.00 20.98 C 389.66 21.07 396.32 21.02 403.00 20.99 C 493.95 22.39 583.29 60.41 649.01 123.00 C 656.96 129.05 662.41 137.56 669.77 144.23 C 699.89 178.12 724.14 217.34 740.39 259.68 C 753.92 294.66 761.41 331.80 764.06 369.15 C 764.05 370.87 764.04 374.29 764.03 376.01 C 764.04 377.72 764.05 381.16 764.05 382.87 C 763.99 390.24 763.96 397.62 764.00 405.00 C 763.91 407.97 763.97 411.01 764.01 414.01 C 760.44 488.65 732.53 561.81 686.64 620.69 C 642.71 677.36 582.10 721.07 514.23 744.43 C 481.65 755.72 447.41 762.26 412.99 764.01 C 406.58 764.28 400.00 763.16 393.70 764.59 C 393.34 764.61 392.62 764.66 392.26 764.68 C 386.20 763.84 380.08 763.92 373.99 764.00 C 329.24 762.79 285.07 751.54 244.04 733.90 C 204.86 716.85 168.36 693.06 137.74 663.26 C 128.67 656.69 122.17 647.54 114.39 639.65 C 85.73 607.14 62.24 569.81 46.54 529.34 C 30.92 490.14 22.56 448.12 20.98 406.00 C 21.00 397.66 21.07 389.33 20.98 381.00 C 21.66 332.79 33.57 285.00 53.00 241.00 C 84.57 169.89 139.28 109.42 206.64 70.57 M 349.32 36.41 C 306.29 49.02 263.58 66.71 229.25 96.25 C 218.63 106.30 207.41 118.01 204.99 132.98 L 204.04 133.03 C 204.46 135.44 202.78 140.09 205.00 141.03 C 206.70 153.76 215.81 163.75 224.75 172.25 C 253.50 196.80 289.42 211.04 325.32 221.54 C 346.13 227.10 367.38 232.42 388.99 233.01 L 389.03 233.95 C 395.35 234.16 401.67 233.98 408.00 233.99 L 408.00 233.02 C 434.59 231.14 460.70 224.43 485.78 215.61 C 518.13 203.72 550.21 188.42 575.18 164.21 C 582.92 154.86 591.36 144.79 592.05 132.01 C 593.12 121.26 586.55 112.40 581.09 103.92 C 558.68 77.88 527.64 61.27 496.09 48.84 C 474.88 40.05 452.54 34.14 429.93 30.20 C 403.02 25.10 375.50 29.63 349.32 36.41 M 703.28 202.96 C 698.78 218.05 689.51 231.44 678.76 242.76 C 649.10 274.09 609.63 293.75 569.69 308.66 C 567.40 309.45 565.16 311.59 566.46 314.65 C 562.19 334.83 558.08 355.29 558.02 375.99 L 557.04 376.02 C 556.87 379.44 557.05 382.82 557.27 386.25 C 556.54 394.38 556.99 402.60 557.29 410.75 C 557.22 413.56 557.07 419.19 557.00 422.01 L 558.00 421.99 C 561.27 476.46 576.50 530.60 604.35 577.68 C 616.65 597.53 630.56 618.23 652.07 628.94 C 663.41 630.69 671.50 620.77 678.77 613.77 C 694.85 595.88 706.61 574.58 716.93 552.97 C 737.29 506.71 749.63 456.60 751.02 406.00 L 751.98 405.99 C 752.04 395.65 752.02 385.32 751.98 375.00 L 751.01 375.00 C 748.70 315.65 733.90 256.21 704.84 204.17 C 704.45 203.87 703.67 203.26 703.28 202.96 M 46.87 290.92 C 39.50 317.34 33.65 344.49 33.01 372.00 L 32.00 371.99 C 32.07 374.81 32.20 380.44 32.27 383.25 C 31.67 391.03 31.81 398.93 32.38 406.70 C 32.56 409.56 30.11 416.16 33.01 417.00 C 35.02 455.79 44.73 493.94 59.03 529.96 C 73.06 561.51 89.65 592.98 115.24 616.76 C 120.14 622.41 126.23 626.81 132.98 630.02 C 135.89 631.74 139.98 633.30 143.03 631.02 C 153.67 625.01 161.36 615.09 168.32 605.30 C 192.25 569.67 206.34 528.33 215.63 486.71 C 220.32 464.77 224.48 442.47 224.98 420.00 C 227.30 419.12 225.50 414.18 225.73 411.74 C 226.15 408.85 225.98 405.88 226.01 403.00 L 226.96 402.98 C 227.11 391.98 226.98 380.99 226.98 370.00 L 226.01 370.00 C 225.93 366.79 226.24 363.44 225.61 360.30 C 225.58 357.86 227.27 352.90 225.00 352.01 C 224.64 336.42 221.35 321.10 219.47 305.66 C 221.44 300.30 215.74 299.78 212.80 298.38 C 182.35 287.93 152.95 274.05 126.70 255.31 C 108.52 242.21 92.46 225.46 82.93 204.95 C 67.00 231.50 55.55 261.10 46.87 290.92 M 334.31 260.36 C 294.38 278.02 263.43 314.62 252.96 356.99 C 251.03 365.54 248.53 374.12 248.99 382.99 L 248.05 383.03 C 247.84 389.35 248.01 395.67 248.01 402.00 L 248.98 402.00 C 251.45 455.40 286.79 505.39 336.14 525.81 C 351.34 531.99 367.47 536.84 383.99 537.01 L 384.02 537.96 C 390.01 538.16 396.00 537.97 402.00 537.99 L 402.00 537.02 C 439.13 535.23 475.36 517.74 499.95 489.95 C 521.81 466.03 535.59 434.45 537.01 402.01 L 537.96 401.97 C 538.17 395.98 537.97 389.98 537.99 384.00 L 537.02 384.00 C 535.50 350.05 521.02 317.01 497.26 292.74 C 470.16 263.89 430.57 247.21 390.99 247.96 C 371.57 248.67 352.07 252.22 334.31 260.36 M 261.00 541.03 L 261.01 542.00 L 260.05 542.02 C 259.90 558.33 260.04 574.66 260.00 590.99 C 244.00 591.09 228.00 590.88 212.01 591.03 L 211.03 590.99 C 210.97 606.32 210.96 621.66 211.03 637.00 L 211.01 637.95 C 227.34 638.10 243.69 637.93 260.03 638.02 C 259.93 654.35 260.00 670.69 260.03 687.03 L 260.99 686.94 C 276.32 687.12 291.67 686.97 307.00 686.97 L 307.96 686.99 C 308.08 670.67 307.99 654.33 307.98 638.01 C 324.32 637.97 340.67 638.04 357.02 637.98 L 356.97 637.01 C 357.04 621.66 357.02 606.32 356.97 590.98 L 355.99 591.05 C 339.99 590.86 323.99 591.10 307.99 590.99 C 308.03 574.66 308.01 558.33 307.97 542.00 L 306.99 542.01 L 306.99 541.03 C 291.66 540.96 276.33 540.97 261.00 541.03 M 514.00 579.01 L 514.00 579.98 C 509.20 579.76 504.91 582.55 500.98 584.95 C 489.43 593.78 481.94 608.30 482.99 623.00 C 482.99 636.68 495.92 647.93 508.99 649.03 C 510.46 652.07 517.85 648.81 520.99 649.99 L 521.02 649.01 C 538.10 646.38 549.05 628.28 550.02 612.01 L 550.96 611.97 C 550.53 609.58 552.21 604.89 550.02 604.00 C 550.16 597.44 547.01 591.08 542.82 586.19 C 537.70 583.25 532.21 579.52 526.00 579.98 C 524.56 576.93 517.08 580.14 514.00 579.01 M 373.02 580.02 L 372.98 580.99 C 367.06 580.93 366.19 591.74 371.98 592.00 C 373.05 595.37 381.03 591.63 383.91 593.07 L 383.96 594.15 C 382.10 595.20 382.72 599.01 383.37 600.90 C 382.56 603.95 383.13 607.09 383.26 610.25 C 382.81 616.03 382.72 621.93 383.38 627.70 C 382.89 630.42 382.89 633.19 383.04 635.95 C 377.92 636.49 371.46 635.40 368.18 640.27 C 366.19 645.30 370.90 648.53 374.99 648.98 C 383.69 646.75 392.84 647.48 401.70 646.61 C 404.14 646.58 409.08 648.28 410.02 645.98 C 415.82 645.73 414.92 634.92 409.02 635.00 C 407.23 631.90 399.48 635.09 396.01 634.02 C 395.96 623.92 396.23 613.82 395.70 603.75 C 395.80 601.07 396.00 595.71 396.10 593.04 C 401.91 592.90 411.17 597.04 413.99 589.95 C 415.98 580.20 403.01 581.39 397.01 580.99 L 396.98 580.05 C 388.99 579.84 380.99 580.02 373.02 580.02 M 451.00 581.88 C 441.01 582.54 431.19 588.63 426.71 597.70 C 424.62 601.66 423.73 607.36 427.23 610.78 C 435.56 621.29 450.50 616.27 461.75 620.27 C 464.24 622.17 465.32 625.75 464.79 628.76 C 457.42 637.38 443.57 640.57 433.26 635.74 C 431.53 633.74 430.47 631.26 428.76 629.27 C 426.29 628.09 423.71 628.08 421.25 629.28 C 418.64 631.56 418.44 635.52 419.25 638.70 C 422.37 644.81 429.16 648.94 435.99 649.02 L 436.03 649.96 C 440.68 650.15 445.32 649.98 450.00 649.99 L 450.00 649.03 C 457.91 648.95 465.61 645.53 471.81 640.81 C 479.20 635.23 479.79 624.24 475.28 616.72 C 469.23 608.66 458.52 606.50 448.99 606.90 C 445.46 606.13 440.58 607.21 438.15 603.77 C 437.34 598.75 443.09 596.36 446.89 594.80 C 454.27 592.04 462.13 596.15 469.72 594.80 C 471.76 592.72 474.93 590.85 473.02 587.05 C 466.33 583.77 458.64 580.09 451.00 581.88 Z" />
</g>
<g id="#41b349ff">
<path fill="#41b349" opacity="1.00" d=" M 349.32 36.41 C 375.50 29.63 403.02 25.10 429.93 30.20 C 452.54 34.14 474.88 40.05 496.09 48.84 C 527.64 61.27 558.68 77.88 581.09 103.92 C 586.55 112.40 593.12 121.26 592.05 132.01 C 591.36 144.79 582.92 154.86 575.18 164.21 C 550.21 188.42 518.13 203.72 485.78 215.61 C 460.70 224.43 434.59 231.14 408.00 233.02 C 401.65 232.99 395.32 232.94 388.99 233.01 C 367.38 232.42 346.13 227.10 325.32 221.54 C 289.42 211.04 253.50 196.80 224.75 172.25 C 215.81 163.75 206.70 153.76 205.00 141.03 C 204.98 138.34 204.98 135.66 204.99 132.98 C 207.41 118.01 218.63 106.30 229.25 96.25 C 263.58 66.71 306.29 49.02 349.32 36.41 Z" />
</g>
<g id="#adc13fff">
<path fill="#adc13f" opacity="1.00" d=" M 204.04 133.03 L 204.99 132.98 C 204.98 135.66 204.98 138.34 205.00 141.03 C 202.78 140.09 204.46 135.44 204.04 133.03 Z" />
</g>
<g id="#708fc5ff">
<path fill="#708fc5" opacity="1.00" d=" M 703.28 202.96 C 703.67 203.26 704.45 203.87 704.84 204.17 C 733.90 256.21 748.70 315.65 751.01 375.00 C 750.98 385.33 750.94 395.67 751.02 406.00 C 749.63 456.60 737.29 506.71 716.93 552.97 C 706.61 574.58 694.85 595.88 678.77 613.77 C 671.50 620.77 663.41 630.69 652.07 628.94 C 630.56 618.23 616.65 597.53 604.35 577.68 C 576.50 530.60 561.27 476.46 558.00 421.99 C 558.05 418.21 557.81 414.47 557.29 410.75 C 556.99 402.60 556.54 394.38 557.27 386.25 C 557.75 382.83 558.14 379.43 558.02 375.99 C 558.08 355.29 562.19 334.83 566.46 314.65 C 565.16 311.59 567.40 309.45 569.69 308.66 C 609.63 293.75 649.10 274.09 678.76 242.76 C 689.51 231.44 698.78 218.05 703.28 202.96 Z" />
</g>
<g id="#da4a37ff">
<path fill="#da4a37" opacity="1.00" d=" M 46.87 290.92 C 55.55 261.10 67.00 231.50 82.93 204.95 C 92.46 225.46 108.52 242.21 126.70 255.31 C 152.95 274.05 182.35 287.93 212.80 298.38 C 215.74 299.78 221.44 300.30 219.47 305.66 C 221.35 321.10 224.64 336.42 225.00 352.01 C 225.00 354.75 224.81 357.61 225.61 360.30 C 226.24 363.44 225.93 366.79 226.01 370.00 C 225.97 381.00 225.97 392.00 226.01 403.00 C 225.98 405.88 226.15 408.85 225.73 411.74 C 225.34 414.44 224.96 417.24 224.98 420.00 C 224.48 442.47 220.32 464.77 215.63 486.71 C 206.34 528.33 192.25 569.67 168.32 605.30 C 161.36 615.09 153.67 625.01 143.03 631.02 C 139.98 633.30 135.89 631.74 132.98 630.02 C 126.23 626.81 120.14 622.41 115.24 616.76 C 89.65 592.98 73.06 561.51 59.03 529.96 C 44.73 493.94 35.02 455.79 33.01 417.00 C 33.01 413.54 33.38 410.05 32.38 406.70 C 31.81 398.93 31.67 391.03 32.27 383.25 C 32.83 379.52 33.08 375.77 33.01 372.00 C 33.65 344.49 39.50 317.34 46.87 290.92 Z" />
</g>
<g id="#acc13fff">
<path fill="#acc13f" opacity="1.00" d=" M 388.99 233.01 C 395.32 232.94 401.65 232.99 408.00 233.02 L 408.00 233.99 C 401.67 233.98 395.35 234.16 389.03 233.95 L 388.99 233.01 Z" />
</g>
<g id="#343432ff">
<path fill="#343432" opacity="1.00" d=" M 334.31 260.36 C 352.07 252.22 371.57 248.67 390.99 247.96 C 430.57 247.21 470.16 263.89 497.26 292.74 C 521.02 317.01 535.50 350.05 537.02 384.00 C 536.97 390.00 536.98 396.00 537.01 402.01 C 535.59 434.45 521.81 466.03 499.95 489.95 C 475.36 517.74 439.13 535.23 402.00 537.02 C 395.99 536.97 389.99 536.95 383.99 537.01 C 367.47 536.84 351.34 531.99 336.14 525.81 C 286.79 505.39 251.45 455.40 248.98 402.00 C 249.01 395.65 249.04 389.32 248.99 382.99 C 248.53 374.12 251.03 365.54 252.96 356.99 C 263.43 314.62 294.38 278.02 334.31 260.36 M 385.01 268.02 L 384.98 269.00 C 360.31 270.47 336.37 279.80 316.84 294.86 C 286.42 318.46 267.73 357.15 269.37 395.70 C 269.68 398.17 266.72 404.82 270.03 405.01 C 274.14 462.39 324.51 512.66 382.00 515.99 L 382.00 517.01 C 384.80 516.90 390.39 516.69 393.19 516.59 L 393.76 516.52 C 396.58 516.55 403.17 518.83 404.01 516.00 C 425.18 514.89 445.50 506.67 463.00 495.00 C 472.98 488.91 480.40 479.76 488.74 471.75 C 503.83 452.39 514.73 428.76 515.97 404.01 C 518.30 403.11 516.50 398.19 516.72 395.74 C 516.70 394.13 516.65 390.91 516.63 389.30 C 516.57 386.86 518.28 381.91 515.99 381.00 C 514.14 354.24 501.98 328.65 484.28 308.72 C 462.91 285.57 432.53 270.64 401.01 268.99 L 400.99 268.02 C 395.66 267.92 390.33 267.92 385.01 268.02 Z" />
</g>
<g id="#5f5534ff">
<path fill="#5f5534" opacity="1.00" d=" M 385.01 268.02 C 390.33 267.92 395.66 267.92 400.99 268.02 L 401.01 268.99 C 395.65 269.00 390.33 269.00 384.98 269.00 L 385.01 268.02 Z" />
</g>
<g id="#f6ca38ff">
<path fill="#f6ca38" opacity="1.00" d=" M 316.84 294.86 C 336.37 279.80 360.31 270.47 384.98 269.00 C 390.33 269.00 395.65 269.00 401.01 268.99 C 432.53 270.64 462.91 285.57 484.28 308.72 C 501.98 328.65 514.14 354.24 515.99 381.00 C 516.00 383.74 515.80 386.62 516.63 389.30 C 516.65 390.91 516.70 394.13 516.72 395.74 C 516.33 398.45 516.02 401.24 515.97 404.01 C 514.73 428.76 503.83 452.39 488.74 471.75 C 480.40 479.76 472.98 488.91 463.00 495.00 C 445.50 506.67 425.18 514.89 404.01 516.00 C 400.56 515.95 397.13 515.78 393.76 516.52 L 393.19 516.59 C 389.46 516.24 385.73 516.04 382.00 515.99 C 324.51 512.66 274.14 462.39 270.03 405.01 C 269.95 401.87 270.31 398.72 269.37 395.70 C 267.73 357.15 286.42 318.46 316.84 294.86 M 384.90 341.77 C 362.59 344.73 343.53 364.48 341.97 386.99 L 341.01 387.02 C 341.01 389.76 341.00 395.25 341.00 398.00 L 341.97 398.00 C 343.55 421.32 363.65 441.96 386.98 444.02 L 387.02 444.99 C 389.76 444.99 395.25 445.00 398.00 445.00 L 398.00 444.03 C 421.44 442.63 441.94 422.37 444.02 399.02 L 444.99 398.98 C 444.99 396.24 445.00 390.75 445.00 388.00 L 444.03 388.00 C 442.91 359.38 413.02 336.02 384.90 341.77 Z" />
</g>
<g id="#343433ff">
<path fill="#343433" opacity="1.00" d=" M 384.90 341.77 C 413.02 336.02 442.91 359.38 444.03 388.00 C 443.97 391.65 443.99 395.36 444.02 399.02 C 441.94 422.37 421.44 442.63 398.00 444.03 C 394.30 443.97 390.66 443.99 386.98 444.02 C 363.65 441.96 343.55 421.32 341.97 398.00 C 341.98 394.31 342.04 390.67 341.97 386.99 C 343.53 364.48 362.59 344.73 384.90 341.77 M 389.15 361.95 C 386.96 361.86 384.96 362.84 382.91 363.44 C 382.72 363.50 382.34 363.63 382.15 363.69 C 380.24 364.25 378.46 365.16 376.85 366.31 C 376.69 366.42 376.36 366.64 376.19 366.75 C 369.93 371.59 364.36 377.90 362.97 385.98 C 358.12 402.41 371.03 421.31 387.98 423.01 C 390.48 423.26 395.49 423.75 397.99 424.00 L 398.02 423.02 C 410.65 421.38 421.66 410.73 422.99 397.92 C 423.20 397.44 423.64 396.47 423.85 395.99 C 424.23 393.26 424.13 390.56 423.58 387.89 C 423.53 387.70 423.43 387.32 423.38 387.13 C 420.84 374.08 409.29 362.70 395.84 361.95 C 395.04 360.15 389.95 360.14 389.15 361.95 Z" />
</g>
<g id="#e88938ff">
<path fill="#e88938" opacity="1.00" d=" M 225.00 352.01 C 227.27 352.90 225.58 357.86 225.61 360.30 C 224.81 357.61 225.00 354.75 225.00 352.01 Z" />
</g>
<g id="#5e5e5eff">
<path fill="#5e5e5e" opacity="1.00" d=" M 389.15 361.95 C 389.95 360.14 395.04 360.15 395.84 361.95 C 394.17 361.95 390.82 361.95 389.15 361.95 Z" />
<path fill="#5e5e5e" opacity="1.00" d=" M 423.38 387.13 C 423.43 387.32 423.53 387.70 423.58 387.89 C 423.53 387.70 423.43 387.32 423.38 387.13 Z" />
</g>
<g id="#b29536ff">
<path fill="#b29536" opacity="1.00" d=" M 382.15 363.69 C 382.34 363.63 382.72 363.50 382.91 363.44 C 382.72 363.50 382.34 363.63 382.15 363.69 Z" />
<path fill="#b29536" opacity="1.00" d=" M 376.19 366.75 C 376.36 366.64 376.69 366.42 376.85 366.31 C 376.69 366.42 376.36 366.64 376.19 366.75 Z" />
<path fill="#b29536" opacity="1.00" d=" M 422.99 397.92 C 423.20 397.44 423.64 396.47 423.85 395.99 C 423.64 396.47 423.20 397.44 422.99 397.92 Z" />
<path fill="#b29536" opacity="1.00" d=" M 387.98 423.01 C 391.33 423.02 394.64 422.98 398.02 423.02 L 397.99 424.00 C 395.49 423.75 390.48 423.26 387.98 423.01 Z" />
</g>
<g id="#655934ff">
<path fill="#655934" opacity="1.00" d=" M 764.06 369.15 C 766.01 370.18 765.35 374.16 764.48 376.01 L 764.03 376.01 C 764.04 374.29 764.05 370.87 764.06 369.15 Z" />
</g>
<g id="#1e1e1e99">
<path fill="#1e1e1e" opacity="0.60" d=" M 0.00 369.99 L 0.99 370.01 C 1.12 373.84 0.79 377.65 0.00 381.42 L 0.00 369.99 Z" />
</g>
<g id="#eb9638ff">
<path fill="#eb9638" opacity="1.00" d=" M 226.01 370.00 L 226.98 370.00 C 226.98 380.99 227.11 391.98 226.96 402.98 L 226.01 403.00 C 225.97 392.00 225.97 381.00 226.01 370.00 Z" />
</g>
<g id="#e57e38ff">
<path fill="#e57e38" opacity="1.00" d=" M 32.00 371.99 L 33.01 372.00 C 33.08 375.77 32.83 379.52 32.27 383.25 C 32.20 380.44 32.07 374.81 32.00 371.99 Z" />
</g>
<g id="#c0b271ff">
<path fill="#c0b271" opacity="1.00" d=" M 751.01 375.00 L 751.98 375.00 C 752.02 385.32 752.04 395.65 751.98 405.99 L 751.02 406.00 C 750.94 395.67 750.98 385.33 751.01 375.00 Z" />
</g>
<g id="#574c29ce">
<path fill="#574c29" opacity="0.81" d=" M 785.01 374.99 L 786.00 375.02 L 786.00 388.51 C 783.70 384.41 785.59 379.38 785.01 374.99 Z" />
</g>
<g id="#aca986ff">
<path fill="#aca986" opacity="1.00" d=" M 557.04 376.02 L 558.02 375.99 C 558.14 379.43 557.75 382.83 557.27 386.25 C 557.05 382.82 556.87 379.44 557.04 376.02 Z" />
<path fill="#aca986" opacity="1.00" d=" M 557.29 410.75 C 557.81 414.47 558.05 418.21 558.00 421.99 L 557.00 422.01 C 557.07 419.19 557.22 413.56 557.29 410.75 Z" />
</g>
<g id="#a08835ff">
<path fill="#a08835" opacity="1.00" d=" M 764.03 376.01 L 764.48 376.01 C 765.45 378.06 765.50 380.80 764.66 382.90 L 764.05 382.87 C 764.05 381.16 764.04 377.72 764.03 376.01 Z" />
</g>
<g id="#615634ff">
<path fill="#615634" opacity="1.00" d=" M 20.02 381.01 L 20.98 381.00 C 21.07 389.33 21.00 397.66 20.98 406.00 L 20.02 406.00 C 19.95 397.66 19.95 389.33 20.02 381.01 Z" />
</g>
<g id="#a78d36ff">
<path fill="#a78d36" opacity="1.00" d=" M 515.99 381.00 C 518.28 381.91 516.57 386.86 516.63 389.30 C 515.80 386.62 516.00 383.74 515.99 381.00 Z" />
<path fill="#a78d36" opacity="1.00" d=" M 248.05 383.03 L 248.99 382.99 C 249.04 389.32 249.01 395.65 248.98 402.00 L 248.01 402.00 C 248.01 395.67 247.84 389.35 248.05 383.03 Z" />
<path fill="#a78d36" opacity="1.00" d=" M 537.02 384.00 L 537.99 384.00 C 537.97 389.98 538.17 395.98 537.96 401.97 L 537.01 402.01 C 536.98 396.00 536.97 390.00 537.02 384.00 Z" />
<path fill="#a78d36" opacity="1.00" d=" M 341.01 387.02 L 341.97 386.99 C 342.04 390.67 341.98 394.31 341.97 398.00 L 341.00 398.00 C 341.00 395.25 341.01 389.76 341.01 387.02 Z" />
<path fill="#a78d36" opacity="1.00" d=" M 386.98 444.02 C 390.66 443.99 394.30 443.97 398.00 444.03 L 398.00 445.00 C 395.25 445.00 389.76 444.99 387.02 444.99 L 386.98 444.02 Z" />
</g>
<g id="#c5a437ff">
<path fill="#c5a437" opacity="1.00" d=" M 764.05 382.87 L 764.66 382.90 C 765.33 390.22 764.95 397.64 764.97 405.00 L 764.00 405.00 C 763.96 397.62 763.99 390.24 764.05 382.87 Z" />
</g>
<g id="#a88d36ff">
<path fill="#a88d36" opacity="1.00" d=" M 444.03 388.00 L 445.00 388.00 C 445.00 390.75 444.99 396.24 444.99 398.98 L 444.02 399.02 C 443.99 395.36 443.97 391.65 444.03 388.00 Z" />
</g>
<g id="#a58b36ff">
<path fill="#a58b36" opacity="1.00" d=" M 269.37 395.70 C 270.31 398.72 269.95 401.87 270.03 405.01 C 266.72 404.82 269.68 398.17 269.37 395.70 Z" />
</g>
<g id="#ab9036ff">
<path fill="#ab9036" opacity="1.00" d=" M 515.97 404.01 C 516.02 401.24 516.33 398.45 516.72 395.74 C 516.50 398.19 518.30 403.11 515.97 404.01 Z" />
</g>
<g id="#1c1c1c91">
<path fill="#1c1c1c" opacity="0.57" d=" M -0.00 404.58 C 0.78 408.34 1.11 412.15 1.00 416.01 L 0.00 415.98 L 0.00 404.58 Z" />
</g>
<g id="#837134ff">
<path fill="#837134" opacity="1.00" d=" M 764.00 405.00 L 764.97 405.00 C 764.11 407.35 766.49 413.01 764.01 414.01 C 763.97 411.01 763.91 407.97 764.00 405.00 Z" />
</g>
<g id="#e78538ff">
<path fill="#e78538" opacity="1.00" d=" M 32.38 406.70 C 33.38 410.05 33.01 413.54 33.01 417.00 C 30.11 416.16 32.56 409.56 32.38 406.70 Z" />
</g>
<g id="#e78338ff">
<path fill="#e78338" opacity="1.00" d=" M 224.98 420.00 C 224.96 417.24 225.34 414.44 225.73 411.74 C 225.50 414.18 227.30 419.12 224.98 420.00 Z" />
</g>
<g id="#b29636ff">
<path fill="#b29636" opacity="1.00" d=" M 382.00 515.99 C 385.73 516.04 389.46 516.24 393.19 516.59 C 390.39 516.69 384.80 516.90 382.00 517.01 L 382.00 515.99 Z" />
</g>
<g id="#ad9136ff">
<path fill="#ad9136" opacity="1.00" d=" M 393.76 516.52 C 397.13 515.78 400.56 515.95 404.01 516.00 C 403.17 518.83 396.58 516.55 393.76 516.52 Z" />
</g>
<g id="#a78c36ff">
<path fill="#a78c36" opacity="1.00" d=" M 383.99 537.01 C 389.99 536.95 395.99 536.97 402.00 537.02 L 402.00 537.99 C 396.00 537.97 390.01 538.16 384.02 537.96 L 383.99 537.01 Z" />
</g>
<g id="#a98b27ff">
<path fill="#a98b27" opacity="1.00" d=" M 261.00 541.03 C 276.33 540.97 291.66 540.96 306.99 541.03 L 306.99 542.01 C 291.66 541.99 276.34 541.99 261.01 542.00 L 261.00 541.03 Z" />
</g>
<g id="#c09e2cff">
<path fill="#c09e2c" opacity="1.00" d=" M 260.05 542.02 L 261.01 542.00 C 260.88 558.31 261.18 574.62 260.94 590.93 L 260.00 590.99 C 260.04 574.66 259.90 558.33 260.05 542.02 Z" />
<path fill="#c09e2c" opacity="1.00" d=" M 396.01 634.02 C 399.48 635.09 407.23 631.90 409.02 635.00 C 404.67 634.98 400.31 635.06 395.98 634.99 L 396.01 634.02 Z" />
<path fill="#c09e2c" opacity="1.00" d=" M 260.03 638.02 L 260.99 637.99 C 261.09 653.98 260.92 669.98 261.02 685.98 L 260.99 686.94 L 260.03 687.03 C 260.00 670.69 259.93 654.35 260.03 638.02 Z" />
</g>
<g id="#000000ff">
<path fill="#000000" opacity="1.00" d=" M 261.01 542.00 C 276.34 541.99 291.66 541.99 306.99 542.01 C 307.10 558.31 306.83 574.63 307.05 590.94 L 307.99 590.99 C 323.99 591.10 339.99 590.86 355.99 591.05 C 355.99 606.35 356.01 621.67 355.99 636.98 C 339.68 637.12 323.37 636.82 307.06 637.06 L 307.01 637.99 C 306.91 653.98 307.07 669.99 306.98 685.99 C 291.66 685.98 276.34 686.03 261.02 685.98 C 260.92 669.98 261.09 653.98 260.99 637.99 L 260.93 637.03 C 244.62 636.88 228.31 637.08 212.01 636.98 C 212.00 621.66 211.99 606.35 212.01 591.03 C 228.00 590.88 244.00 591.09 260.00 590.99 L 260.94 590.93 C 261.18 574.62 260.88 558.31 261.01 542.00 Z" />
</g>
<g id="#b9982aff">
<path fill="#b9982a" opacity="1.00" d=" M 306.99 542.01 L 307.97 542.00 C 308.01 558.33 308.03 574.66 307.99 590.99 L 307.05 590.94 C 306.83 574.63 307.10 558.31 306.99 542.01 Z" />
<path fill="#b9982a" opacity="1.00" d=" M 307.01 637.99 L 307.98 638.01 C 307.99 654.33 308.08 670.67 307.96 686.99 L 307.00 686.97 L 306.98 685.99 C 307.07 669.99 306.91 653.98 307.01 637.99 Z" />
</g>
<g id="#735f1aff">
<path fill="#735f1a" opacity="1.00" d=" M 514.00 579.01 C 517.08 580.14 524.56 576.93 526.00 579.98 C 521.99 579.99 517.99 579.99 514.00 579.98 L 514.00 579.01 Z" />
</g>
<g id="#604f16ff">
<path fill="#604f16" opacity="1.00" d=" M 373.02 580.02 C 380.99 580.02 388.99 579.84 396.98 580.05 L 397.01 580.99 C 388.99 581.02 380.99 580.98 372.98 580.99 L 373.02 580.02 Z" />
</g>
<g id="#050401ff">
<path fill="#050401" opacity="1.00" d=" M 500.98 584.95 C 504.91 582.55 509.20 579.76 514.00 579.98 C 517.99 579.99 521.99 579.99 526.00 579.98 C 532.21 579.52 537.70 583.25 542.82 586.19 C 547.01 591.08 550.16 597.44 550.02 604.00 C 549.98 606.65 549.98 609.32 550.02 612.01 C 549.05 628.28 538.10 646.38 521.02 649.01 C 517.00 648.99 512.99 649.00 508.99 649.03 C 495.92 647.93 482.99 636.68 482.99 623.00 C 481.94 608.30 489.43 593.78 500.98 584.95 M 516.00 591.99 C 512.77 591.85 510.09 594.08 507.25 595.27 C 498.44 603.13 493.49 615.68 496.60 627.36 C 502.82 639.09 521.33 641.68 529.63 630.67 C 536.92 621.43 540.11 608.52 535.70 597.27 C 533.18 594.08 529.14 591.69 525.01 591.97 L 524.97 591.04 C 522.56 591.77 516.02 588.69 516.00 591.99 Z" />
<path fill="#050401" opacity="1.00" d=" M 451.00 581.88 C 458.64 580.09 466.33 583.77 473.02 587.05 C 474.93 590.85 471.76 592.72 469.72 594.80 C 462.13 596.15 454.27 592.04 446.89 594.80 C 443.09 596.36 437.34 598.75 438.15 603.77 C 440.58 607.21 445.46 606.13 448.99 606.90 C 458.52 606.50 469.23 608.66 475.28 616.72 C 479.79 624.24 479.20 635.23 471.81 640.81 C 465.61 645.53 457.91 648.95 450.00 649.03 C 445.31 648.97 440.66 648.97 435.99 649.02 C 429.16 648.94 422.37 644.81 419.25 638.70 C 418.44 635.52 418.64 631.56 421.25 629.28 C 423.71 628.08 426.29 628.09 428.76 629.27 C 430.47 631.26 431.53 633.74 433.26 635.74 C 443.57 640.57 457.42 637.38 464.79 628.76 C 465.32 625.75 464.24 622.17 461.75 620.27 C 450.50 616.27 435.56 621.29 427.23 610.78 C 423.73 607.36 424.62 601.66 426.71 597.70 C 431.19 588.63 441.01 582.54 451.00 581.88 Z" />
</g>
<g id="#020201ff">
<path fill="#020201" opacity="1.00" d=" M 371.98 592.00 C 366.19 591.74 367.06 580.93 372.98 580.99 C 380.99 580.98 388.99 581.02 397.01 580.99 C 403.01 581.39 415.98 580.20 413.99 589.95 C 411.17 597.04 401.91 592.90 396.10 593.04 C 396.00 595.71 395.80 601.07 395.70 603.75 C 394.44 614.09 395.06 624.55 395.03 634.95 L 395.98 634.99 C 400.31 635.06 404.67 634.98 409.02 635.00 C 414.92 634.92 415.82 645.73 410.02 645.98 C 407.20 646.00 404.41 645.86 401.70 646.61 C 392.84 647.48 383.69 646.75 374.99 648.98 C 370.90 648.53 366.19 645.30 368.18 640.27 C 371.46 635.40 377.92 636.49 383.04 635.95 C 386.35 635.95 383.54 629.91 383.38 627.70 C 382.72 621.93 382.81 616.03 383.26 610.25 C 383.67 607.10 384.05 604.03 384.00 600.88 C 383.99 599.19 383.97 595.83 383.96 594.15 L 383.91 593.07 L 383.85 592.07 C 379.89 591.98 375.93 591.96 371.98 592.00 Z" />
</g>
<g id="#3e330eff">
<path fill="#3e330e" opacity="1.00" d=" M 211.03 590.99 L 212.01 591.03 C 211.99 606.35 212.00 621.66 212.01 636.98 L 211.03 637.00 C 210.96 621.66 210.97 606.32 211.03 590.99 Z" />
</g>
<g id="#362c0cff">
<path fill="#362c0c" opacity="1.00" d=" M 355.99 591.05 L 356.97 590.98 C 357.02 606.32 357.04 621.66 356.97 637.01 L 355.99 636.98 C 356.01 621.67 355.99 606.35 355.99 591.05 Z" />
</g>
<g id="#725d1aff">
<path fill="#725d1a" opacity="1.00" d=" M 516.00 591.99 C 516.02 588.69 522.56 591.77 524.97 591.04 L 525.01 591.97 C 521.96 591.94 519.01 592.00 516.00 591.99 Z" />
</g>
<g id="#655317ff">
<path fill="#655317" opacity="1.00" d=" M 371.98 592.00 C 375.93 591.96 379.89 591.98 383.85 592.07 L 383.91 593.07 C 381.03 591.63 373.05 595.37 371.98 592.00 Z" />
</g>
<g id="#f3c837ff">
<path fill="#f3c837" opacity="1.00" d=" M 507.25 595.27 C 510.09 594.08 512.77 591.85 516.00 591.99 C 519.01 592.00 521.96 591.94 525.01 591.97 C 529.14 591.69 533.18 594.08 535.70 597.27 C 540.11 608.52 536.92 621.43 529.63 630.67 C 521.33 641.68 502.82 639.09 496.60 627.36 C 493.49 615.68 498.44 603.13 507.25 595.27 Z" />
</g>
<g id="#927821ff">
<path fill="#927821" opacity="1.00" d=" M 383.37 600.90 C 382.72 599.01 382.10 595.20 383.96 594.15 C 383.97 595.83 383.99 599.19 384.00 600.88 L 383.37 600.90 Z" />
</g>
<g id="#3d320eff">
<path fill="#3d320e" opacity="1.00" d=" M 383.37 600.90 L 384.00 600.88 C 384.05 604.03 383.67 607.10 383.26 610.25 C 383.13 607.09 382.56 603.95 383.37 600.90 Z" />
</g>
<g id="#2f270bff">
<path fill="#2f270b" opacity="1.00" d=" M 395.03 634.95 C 395.06 624.55 394.44 614.09 395.70 603.75 C 396.23 613.82 395.96 623.92 396.01 634.02 L 395.98 634.99 L 395.03 634.95 Z" />
</g>
<g id="#b19128ff">
<path fill="#b19128" opacity="1.00" d=" M 550.02 604.00 C 552.21 604.89 550.53 609.58 550.96 611.97 L 550.02 612.01 C 549.98 609.32 549.98 606.65 550.02 604.00 Z" />
</g>
<g id="#191406ff">
<path fill="#191406" opacity="1.00" d=" M 383.38 627.70 C 383.54 629.91 386.35 635.95 383.04 635.95 C 382.89 633.19 382.89 630.42 383.38 627.70 Z" />
</g>
<g id="#7b651cff">
<path fill="#7b651c" opacity="1.00" d=" M 211.03 637.00 L 212.01 636.98 C 228.31 637.08 244.62 636.88 260.93 637.03 L 260.99 637.99 L 260.03 638.02 C 243.69 637.93 227.34 638.10 211.01 637.95 L 211.03 637.00 Z" />
<path fill="#7b651c" opacity="1.00" d=" M 307.06 637.06 C 323.37 636.82 339.68 637.12 355.99 636.98 L 356.97 637.01 L 357.02 637.98 C 340.67 638.04 324.32 637.97 307.98 638.01 L 307.01 637.99 L 307.06 637.06 Z" />
</g>
<g id="#30270bff">
<path fill="#30270b" opacity="1.00" d=" M 401.70 646.61 C 404.41 645.86 407.20 646.00 410.02 645.98 C 409.08 648.28 404.14 646.58 401.70 646.61 Z" />
</g>
<g id="#695618ff">
<path fill="#695618" opacity="1.00" d=" M 435.99 649.02 C 440.66 648.97 445.31 648.97 450.00 649.03 L 450.00 649.99 C 445.32 649.98 440.68 650.15 436.03 649.96 L 435.99 649.02 Z" />
</g>
<g id="#705c1aff">
<path fill="#705c1a" opacity="1.00" d=" M 508.99 649.03 C 512.99 649.00 517.00 648.99 521.02 649.01 L 520.99 649.99 C 517.85 648.81 510.46 652.07 508.99 649.03 Z" />
</g>
<g id="#2e260bff">
<path fill="#2e260b" opacity="1.00" d=" M 261.02 685.98 C 276.34 686.03 291.66 685.98 306.98 685.99 L 307.00 686.97 C 291.67 686.97 276.32 687.12 260.99 686.94 L 261.02 685.98 Z" />
</g>
<g id="#b09436ff">
<path fill="#b09436" opacity="1.00" d=" M 373.99 764.00 C 380.08 763.92 386.20 763.84 392.26 764.68 C 386.18 765.05 380.09 765.15 374.02 764.97 L 373.99 764.00 Z" />
</g>
<g id="#a98e36ff">
<path fill="#a98e36" opacity="1.00" d=" M 393.70 764.59 C 400.00 763.16 406.58 764.28 412.99 764.01 L 413.00 764.98 C 406.57 764.77 400.07 765.63 393.70 764.59 Z" />
</g>
</svg>
